<?xml version="1.0" encoding="UTF-8"?>
<svg id="Layer_2" xmlns="http://www.w3.org/2000/svg" viewBox="0 0 2209.11 2209.11">
  <defs>
    <style>
      .cls-1 {
        fill-rule: evenodd;
      }

      .cls-1, .cls-2 {
        fill: #389faf;
      }
    </style>
  </defs>
  <path class="cls-1" d="M1255.84,755.5c-6.31,16.03-7.1,39.51,3.94,52.66-1.93-5.08-3.15-11.39-3.68-18.92,10.86,14.81,30.31,29.09,43.72,47.66,17.96,24.79,29.26,53.27,9.73,74.91,9.11,22.08,7.27,48.45-5.61,79.12-8.41,24.01-4.91,61.42,10.6,112.32,16.03,52.92,30.31,90.07-9.64,139.13,9.02-5.43,15.68-10.51,20.06-15.24,37.15,28.39,63.34,69.3,108.2,86.12,37.94,12.97,10.16,51.25-1.93,70.35-17.61,27.77-32.68,69.13-45.21,123.97-.88,4.38-4.99,7.36-12.44,8.94-11.65,2.98-20.15,11.13-25.41,24.44-3.42,14.46-20.85,30.66-52.31,48.63-3.07-22.43-.7-46.17,7.27-71.23.7-3.24,7.01-3.86,19.01-1.84,8.76-3.42,13.93-13.05,15.33-28.91,23.83-8.94,38.99-44.86,45.38-107.85,1.75-15.33-5.17-27.16-20.68-35.48-23.74-12.62-61.86-26.02-87.88-34.87-3.15-48.27,60.63-87.96-10.86-144.47,51.52,56.6,10.69,83.76-2.37,143.16-10.25,46.61-14.28,105.84-13.14,137.99-.26,8.15-2.28,17.26-5.96,27.34-13.4,38.99-16.03,84.81-7.8,137.64.44,7.89,2.89,13.76,7.27,17.44,18.75,10.78,32.42,28.47,41.09,53.18-23.74,4.82-48.19,4.82-71.93,0-.88-8.85-.7-17.52.53-26.11,8.41-10.69-7.45-25.67-15.6-31.28-9.11-6.22-10.51-16.56-4.21-31.1,13.93-49.24,14.37-96.02,1.23-140.27-1.93-8.76-2.02-16.91-.18-24.36,1.14-34.34-2.98-76.75-12.18-127.39-60.63,19.01-117.66,13.76-171.28-15.86-10.51,37.15-41.53,86.39-93.05,147.8-17,20.33-21.99,42.76-14.98,67.37,9.73,34.34,41.53,92.87,61.15,122.05,1.75,2.72,3.86,4.56,6.48,5.61,20.94,7.18,36.53,25.23,46.87,54.32-21.82,2.28-43.72,2.28-65.53,0-4.03-7.01-5.61-16.21-4.64-27.69,1.84-9.29-9.11-17.17-32.68-23.48-5.52-42.76-26.37-89.45-62.47-140.09-19.8-25.85-21.11-45.38-4.03-58.7,40.21-45.91,75.52-84.99,100.32-118.8,29.79-40.21,32.5-80.25,8.32-120.12,9.02,32.24,8.94,60.1-.18,83.76-13.14,34.08-89.28,110.39-116.96,141.32-19.71,21.29-29.26,43.54-28.74,66.94-2.1,62.38.88,107.24,8.94,134.66,1.75,4.56,4.91,7.97,9.55,10.25,18.66,11.92,32.07,29.61,40.3,53.09-22.95,3.68-46.35,3.68-69.3,0-3.33-7.1-4.21-17.08-2.63-30.05,2.19-9.55-2.98-18.57-15.51-27.16-12.27-9.02-16.21-18.31-11.74-27.95,13.05-50.11,10.95-100.76-6.22-151.92-8.76-24.79-6.31-40.21,7.27-46,54.76-24.18,68.43-72.11,41.27-143.77-19.1-52.48-15.86-95.5,9.64-128.97-18.49-9.64-37.59-9.55-57.39.35-29.35,20.94-30.14,59.75-2.28,116.53,16.56,44.6,2.98,82.44-40.57,113.55-13.76,10.43-22.25,20.76-25.58,31.19-4.82,17.26-.7,38.55,12.35,63.78,10.86,25.06,7.36,45.12-10.6,60.28-21.03,13.49-41.7,11.3-62.21-6.66,20.15,7.36,35.57,4.91,46.26-7.18,37.59-36.36-63.61-62.73-59.49-129.32,1.4-23.39,14.54-47.75,39.34-72.98,21.2-27.86,23.66-56.34,7.36-85.34-75.96-160.25,88.14-222.8,174.09-105.4,37.85-28.39,84.55-29.35,140.01-2.89,43.89,22.6,82.71,27.42,116.44,14.46-5.69-23.66-17.08-48.27-34.26-73.86-7.45-11.65-11.3-19.89-11.65-24.88-3.33-13.14-8.85-24.97-16.47-35.48-4.47-9.11-3.68-19.36,2.45-30.66,9.02-20.68,14.19-40.92,15.51-60.72.44-19.54,8.94-38.37,25.41-56.42-3.24-27.25,3.24-46.79,19.28-58.61,32.85-24.27,78.06-.09,99.53,24.62-12.09-21.64-32.5-35.66-61.24-41.88,25.76-5.43,50.2-12.18,31.89-40.3-7.53-9.02-11.57-17.52-11.92-25.41-1.84,3.24-5.26,6.13-10.25,8.76,2.63-3.59,4.21-7.97,4.47-12.44-6.4,1.84-13.23,1.23-19.1-1.75,18.4,1.23,26.02-8.67,22.78-29.7-3.07-16.73,2.98-28.82,18.05-36.18-4.91-1.23-11.13.44-18.75,4.91,4.82-7.62,13.76-11.21,26.99-10.78,2.19-4.56,5.61-8.5,9.9-11.21-2.02,3.68-2.98,7.89-2.89,12.09,7.45-15.07,21.47-24.53,37.85-26.28,24.62-2.72,38.81,14.54,55.55,11.13,10.16-1.93,15.24-2.8,24.01,4.56-4.73-1.23-9.11-.96-13.05.96,17.08,1.84,25.06,9.99,23.83,24.27-3.77-6.83-9.02-11.04-15.68-12.53,11.74,8.94,14.63,21.47,8.76,37.59-.7-8.67-3.68-15.33-9.02-19.98,3.77,9.46,3.86,19.27.35,29.44-1.93-10.16-7.8-17.96-17.52-23.39,3.86,7.8,6.66,17.44,8.32,28.74.18,3.07.7,5.34,1.4,6.75-.35,2.1-1.4,3.5-3.07,4.21-.26,5.34,2.19,13.84,7.36,25.67,2.19,3.59-.35,6.22-7.53,7.97-2.8,1.14-3.68,3.42-2.63,6.66.88,2.1.44,3.68-1.23,4.82-1.4,1.05-1.75,2.45-1.14,4.29,1.75,2.37.88,4.73-2.63,7.18-.96,1.66-.44,4.21,1.49,7.53,2.19,9.2-6.92,11.83-27.42,7.71h0ZM1493.1,673.49l-50.99,368.5.18.09c2.19,2.37,3.94,5.26,5.17,8.76,1.14,2.45,3.42,4.03,6.92,4.82,7.27,2.8,8.32,8.32,3.15,16.65.53,8.85-.79,14.89-3.94,18.14.79,7.45-.88,12.35-4.99,14.72.7,9.73-4.91,13.58-16.82,11.57l-23.22,167.87c-5.26-3.77-10.34-7.97-15.33-12.35l22.08-159.46c-7.1-2.02-13.14-4.21-18.22-6.66-31.63-13.93-56.86-23.04-75.52-27.16-6.66-25.85-12.35-58.35-6.05-80.69,19.01,12.7,32.42,24.88,40.39,36.53,12.09,12.97,24.79,21.47,38.2,25.41,16.38-13.76,22.95-19.54,26.81-20.85l1.58,21.03,53.97-390.05c-9.11-.09-18.84,2.37-29.18,7.45,20.94-21.99,44.86-94.36,55.81-122.66.96,30.31.18,106.71,12.53,134.4-7.01-7.62-14.54-12.97-22.52-16.03h0ZM1374.64,1530.09l-21.29,153.5h-17l17-123.18c3.5-4.91,6.13-9.99,7.53-15.33,2.8-6.83,6.83-12.35,13.76-14.98h0ZM1143.61,1089.83c-3.07,21.29,23.48,35.83,36.62,53.53-.44,17.61-7.53,30.31-4.29,44.16-8.5-1.75-10.51-15.68-5.87-41.53,0,0-7.97-8.67-23.83-26.11-8.59-8.5-15.86-34.61-21.73-78.5.09-27.69-8.5-54.67-25.76-80.87,25.85-23.13,43.37-58.88,52.48-107.24-.26,32.07-6.75,59.49-19.45,82.18,63.78,70.88,67.81,122.4,11.83,154.37h0Z"/>
  <g>
    <path class="cls-2" d="M1323.87,256.67q28.64,7.88,27.82-1.59l-7.28-71.82-42.47,56.08q-7.02,9.36,21.93,17.33Z"/>
    <path class="cls-2" d="M1172.19,1922.19c-15.44,1.52-17.54,3.71-16.86,10.61l7.35,74.88c.93,9.52,12.42,11.71,26.05,12.03,33.29,1.37,43.15-23.14,40.96-45.47-3.16-32.18-27.61-54.98-57.5-52.05Z"/>
    <path class="cls-2" d="M1619.42,1882.21l-58.39-42.46,13.49,69.04q2.29,11.48,27.53-4.79,24.96-16.09,17.36-21.79Z"/>
    <path class="cls-2" d="M1801.8,474.28c23.09-22.65,25.51-55.99,4.48-77.43-10.86-11.07-13.89-11.33-18.84-6.48l-53.71,52.69c-6.83,6.7-1.33,17.02,6.97,27.84,19.81,26.79,45.09,19.1,61.11,3.39Z"/>
    <path class="cls-2" d="M1104.55,0C494.53,0,0,494.53,0,1104.55s494.53,1104.55,1104.55,1104.55,1104.55-494.52,1104.55-1104.55S1714.58,0,1104.55,0ZM1747.97,320.91c5.65-5.55,11.24-3.63,21.17,6.5l54.31,55.36c48.99,49.94,48.51,99.88,20.24,127.61-20.73,20.34-46,27.09-72.26,16.34l-14.52,53.53c-7.25,26.07,6.45,32.97-5.09,44.29-5.65,5.55-10.77,4.1-20.71-6.03l-38.59-39.34c-7.4-7.54-9.21-13.16-3.55-18.7,9.19-9.01,23.56.93,30.3-20.94l9.41-32.35c2.89-9.31.84-14.69-6.29-24.8-6.68-8.7-12.68-15.76-19.52-9.06l-16.25,15.95c-28.74,28.19-6.19,37.04-18.91,49.52-5.65,5.55-10.77,4.1-21.17-6.5l-42.29-43.11c-9.94-10.13-11.75-15.75-6.1-21.29,12.72-12.48,21.6,10.71,50.34-17.48l79.16-77.65c32.51-31.89,6.2-37.98,20.33-51.84ZM1816.52,1104.55c0,393.21-318.76,711.97-711.97,711.97s-711.97-318.76-711.97-711.97,318.76-711.97,711.97-711.97,711.97,318.76,711.97,711.97ZM1478.93,287.84l33.85-57.04c20.72-34.91-3.07-37.51,6.03-52.83,3.87-6.53,9.36-6.72,21.85.69l52.22,30.99c11.92,7.07,14.94,12.32,11.07,18.85-9.09,15.32-23.34-4.64-44.06,30.26l-39.24,66.12c-22.57,38.03-18.24,68.23,11.28,85.74,29.23,17.35,59.56,5.03,82.97-34.41l45.81-77.19c10.61-17.88-5-27.14,1.07-37.36,3.87-6.53,8.97-5.42,18.05-.03l28.09,16.67c10.5,6.23,12.9,9.96,9.02,16.48-5.56,9.36-21.5.67-32.11,18.55l-41.38,69.07c-41.55,69.36-83.89,79.92-138.37,47.58-55.05-32.67-64.38-77.74-26.15-142.16ZM1237.37,278.73l93.49-122.14c14.54-19.27-4.81-23.57-1.22-36.61,1.84-6.68,7.08-8.32,13.44-6.57l39.45,10.85c6.68,1.84,10.03,5.84,11.14,12.99l20.48,188.06c3.64,29.07,17.86,27.16,14.27,40.2-2.1,7.64-7.26,8.96-20.3,5.37l-58.23-16.02c-11.45-3.15-15.84-7.1-13.74-14.73,3.68-13.36,24.32-2.55,21.37-30.4l-.85-8.11q-1.33-11.32-39.52-21.82-37.86-10.42-43.73-2.79l-7.43,9.59c-16.43,21.15,2.76,22.32-.65,34.73-2.1,7.64-9.54,7.3-18.45,4.85l-29.91-8.23c-11.14-3.06-17.61-6.9-15.6-14.22,3.41-12.41,20.94-5.19,35.97-25.01ZM1025.04,141.35c1.08-19.45,3.36-32.94,6.21-42.45,3.2-10.49,8.9-14.66,28.37-14.23l135.27,2.95c19.8.43,25.31,4.84,27.72,15.46,2.43,9.63,4.12,23.2,4.35,42.68.11,9.91-2,16.13-9.26,15.97-5.28-.12-8.48-4.48-12.28-12.15-11.36-24.01-18.34-36.71-38.14-37.14-8.58-.19-13.3,4.66-13.5,13.57l-2.9,132.96c-.88,40.25,21.44,30.84,21.05,48.65-.17,7.92-4.85,10.46-19.7,10.13l-60.38-1.32c-14.19-.31-19.41-3.06-19.24-10.98.39-17.82,22.94-7.42,23.82-47.67l2.9-132.96c.19-8.91-3.99-13.62-13.23-13.82-19.79-.43-26.99,11.62-39.72,35.11-3.79,7.51-7.52,11.72-12.8,11.6-7.26-.16-9.11-6.14-8.56-16.36ZM777.31,134.33l31.52-7.25c8.04-1.85,13.36.65,20.4,4.79l147.55,92.37-20.2-87.8c-4.66-20.26-22.35-16.19-25.01-27.77-1.7-7.4,2.75-10.11,13.04-12.48l31.84-7.32c11.58-2.66,16.2-1.7,17.9,5.7,2.44,10.61-15.1,15.33-10.44,35.59l38.84,168.85c2.59,11.26-.38,16-10.03,18.22-9.65,2.22-15.01-1.96-16.34-7.75-1.92-8.36-6.4-13.09-15.57-19.11l-158.41-98.34,27.77,119.24c4.66,20.26,22.35,16.19,25.01,27.77,1.7,7.4-2.75,10.11-13.04,12.48l-31.52,7.25c-11.9,2.74-16.28,1.37-17.9-5.7-2.44-10.61,14.78-15.25,10.12-35.51l-28.55-124.14c-10.21-44.38-28.82-25.2-33.26-44.5-1.78-7.72,2.78-11.48,16.29-14.58ZM539.97,253.08l113.39-63.62c16.98-9.53,23.13-10.71,31.3-3.56,7.24,6.16,15.32,14.49,24.24,25,6.57,7.67,8.78,13.62,4.28,18.41-4.63,5.24-9.95,5.2-19.04.46-22.26-11.35-39.51-13.78-57.65-3.6l-12.38,6.94c-18.13,10.17-19.9,16.46-14.73,25.67l15.18,27.05c6.46,11.51,14.24,10.55,26.04,3.93l.58-.32c21.01-11.79,15.07-21.7,25.72-27.67,6.33-3.55,10.16-.78,13.89,3.18l28.15,32.64c7.95,8.78,7.39,12.5,2.16,17.33-13.48,11.72-33.41-19.09-58.45-5.04l-.58.32c-11.8,6.62-16.84,12.47-10.22,24.27l32.46,57.85c5.17,9.21,11.46,10.98,31.89-.49l17.68-10.3c17.56-9.85,17.11-25.49,15.68-52.31-.6-12.53,2.14-17.09,7.68-18.69,7.88-2.15,10.87,1.85,15.59,10.93,8.95,17.3,13.84,30.07,16.22,39.71,2.58,10.66-.22,17.15-17.2,26.68l-118.86,66.69c-12.38,6.94-18.27,7.22-22.15.32-9.69-17.27,17.27-15.75-5.01-55.46l-52.96-94.4c-22.28-39.72-35.04-15.91-44.72-33.18-3.88-6.91-.56-11.79,11.81-18.74ZM404.61,359.71c15.12-14.74,27.78-18.78,32.97-23.85,6.14-5.99,3.65-11.39,9.79-17.38,4.25-4.15,9.16-4.78,22.14,2.38,11.82,6.45,24.55,14.31,40.5,26.42,8.09,6.4,11.05,11.81,5.37,18.27-4.97,5.77-11.02,3.83-24.05,1.33-26.77-5.24-54.07-5.36-72.74,12.84-27.88,27.18-22.78,65.98,7.63,97.18,38.47,39.46,92.87,55.56,129.26,20.08,17.49-17.05,24.06-38.2,23.7-65.04-.31-12.61,13.69-12.43,17.51-.94,11.5,31.18.24,73.04-30.72,103.22-47.73,46.53-113.12,49.9-162.87-1.14-47.22-48.44-47.88-125.22,1.51-173.37ZM306.16,1739.05c-6.43,4.63-11.27,2.42-19.95-9.63l-35.28-49.01c-8.29-11.52-9.23-17.34-2.81-21.97,14.46-10.41,19.73,13.85,52.4-9.67l92.13-66.33c32.67-23.52,11.72-35.68,26.18-46.09,6.43-4.63,11.27-2.42,19.95,9.63l35.28,49.01c8.29,11.52,9.23,17.34,2.81,21.97-14.46,10.41-19.73-13.85-52.4,9.67l-92.13,66.33c-32.67,23.52-11.72,35.68-26.18,46.09ZM506.07,1887.84c-30.73,12.66-72.99,2.96-104.3-26.85-48.28-45.96-54.09-111.18-4.94-162.8,46.65-49,123.35-52.52,173.31-4.96,15.3,14.56,19.81,27.06,25.06,32.06,6.21,5.92,11.52,3.22,17.73,9.13,4.3,4.1,5.12,8.98-1.55,22.21-6.01,12.05-13.39,25.07-24.89,41.46-6.1,8.32-11.39,11.48-18.06,6.05-5.95-4.76-4.24-10.87-2.22-23.99,4.24-26.95,3.33-54.24-15.55-72.21-28.2-26.85-66.79-20.3-96.83,11.25-38,39.92-52.05,94.88-15.24,129.92,17.69,16.84,39.07,22.61,65.88,21.25,12.59-.78,12.93,13.22,1.6,17.47ZM781.75,1852.7c-1.47,9.39-4.35,20.63-8.65,33.73-3.1,9.61-7.03,14.6-13.47,13.27-6.89-1.2-9.63-5.76-10.34-15.99-1.95-24.91-8.9-40.89-27.04-51.04l-12.39-6.92c-18.15-10.14-24.43-8.37-29.59.85l-15.14,27.08c-6.44,11.52-1.55,17.66,10.26,24.26l.58.32c21.03,11.75,26.37,1.51,37.03,7.47,6.34,3.54,5.97,8.25,4.55,13.51l-13.12,41.06c-3.33,11.37-6.8,12.83-13.65,10.89-17.04-5.37-1.18-38.47-26.24-52.47l-.58-.32c-11.81-6.6-19.43-7.84-26.04,3.97l-32.37,57.9c-5.15,9.22-3.37,15.5,17.08,26.94l18.02,9.7c17.57,9.82,30.67,1.27,52.79-13.96,10.37-7.06,15.69-7.11,19.94-3.22,5.95,5.59,4.11,10.24-1.17,19-10.08,16.67-18.41,27.52-25.38,34.58-7.75,7.77-14.74,8.77-31.73-.73l-118.96-66.5c-12.39-6.92-15.71-11.8-11.84-18.72,9.66-17.28,22.45,6.5,44.67-33.25l52.82-94.48c22.22-39.75-4.74-38.19,4.92-55.47,3.86-6.91,9.76-6.64,22.15.28l113.49,63.44c16.99,9.5,21.21,14.13,19.39,24.83ZM1057.16,1968.93c-.45,10.3-3.1,15.87-11.66,15.05-7.59-.65-9.55-6.69-15.16-18.72-11.43-24.77-27.33-46.96-53.01-51.43-38.36-6.68-66.82,20.19-74.29,63.1-9.45,54.29,9.37,107.81,59.43,116.53,24.06,4.19,45.05-2.88,66.6-18.89,10.04-7.63,18.09,3.82,11.02,13.64-18.54,27.59-59.06,42.98-101.65,35.56-65.67-11.43-106.7-62.45-94.47-132.68,11.6-66.65,73.45-112.15,141.4-100.32,20.81,3.62,31.49,11.51,38.64,12.76,8.45,1.47,11.37-3.72,19.82-2.24,5.85,1.02,9.24,4.62,11.04,19.34,1.69,13.36,2.78,28.29,2.31,48.3ZM1297.69,2119.76l-54.85,5.38c-10.51,1.03-16.02-1.08-16.8-8.96-1.26-12.81,15.5-17.77,2.69-36.74l-19.29-27.62c-5.44-8.09-10.92-9.87-23.26-10.65-10.97-.25-20.23,0-19.29,9.52l2.22,22.66c3.93,40.07,24.97,28.05,26.71,45.79.77,7.88-3.57,10.96-18.34,12.41l-60.1,5.9c-14.12,1.39-19.63-.73-20.41-8.61-1.74-17.73,21.89-10.11,17.95-50.17l-10.83-110.35c-4.45-45.32-25.69-28.65-27.63-48.35-.77-7.88,4.22-11.02,18.34-12.41l77.18-7.58c69.62-6.83,108.21,24.86,112.08,64.27,2.84,28.9-7.75,52.82-32.59,66.53l32.59,44.88c15.75,22,29.72,15.65,31.3,31.74.77,7.88-3.57,10.96-17.69,12.35ZM1507.94,2053.53l-128.3,45.99c-13.36,4.79-19.22,4.08-21.89-3.37-6.68-18.64,19.65-12.65,4.29-55.52l-36.52-101.89c-15.37-42.87-31.9-21.52-38.58-40.16-2.67-7.46,1.41-11.72,14.77-16.51l122.4-43.87c18.33-6.57,24.59-6.71,31.46,1.7,6.11,7.27,12.69,16.83,19.75,28.68,5.2,8.65,6.39,14.89,1.15,18.87-5.43,4.4-10.67,3.47-18.85-2.71-20.06-14.89-36.67-20.16-56.24-13.14l-13.36,4.79c-19.57,7.01-22.36,12.92-18.8,22.86l10.47,29.2c4.45,12.43,12.29,12.77,25.03,8.21l.62-.22c22.68-8.13,18.47-18.89,29.96-23.01,6.83-2.45,10.15.92,13.17,5.45l22.33,36.87c6.38,9.98,5.21,13.56-.76,17.45-15.24,9.32-29.77-24.38-56.8-14.7l-.62.22c-12.74,4.56-18.68,9.5-14.12,22.24l22.38,62.44c3.56,9.94,9.47,12.73,31.53,4.83l19.15-7.21c18.95-6.79,21.11-22.29,24.16-48.98,1.5-12.46,4.95-16.5,10.68-17.15,8.12-.81,10.42,3.63,13.56,13.37,5.95,18.55,8.65,31.96,9.39,41.86.77,10.94-3.07,16.87-21.4,23.44ZM1743.37,1917.34l-50.76,32.72c-9.98,6.44-15.85,7.08-20.14.42-7.51-11.65,14.31-19.83-8.41-36.2l-6.61-4.77q-9.33-6.55-42.61,14.91-33.01,21.28-31.23,30.73l2.2,11.93c4.81,26.34,18.48,12.83,25.45,23.64,4.29,6.66-.92,11.98-8.68,16.98l-26.07,16.81c-9.71,6.26-16.88,8.53-21,2.15-6.97-10.82,10.09-19.07,5.34-43.49l-28.71-151.11c-4.67-23.69-20.77-12.13-28.11-23.5-3.75-5.82-1.48-10.82,4.07-14.4l34.39-22.17c5.83-3.75,11.04-3.58,17.11.35l153.82,110.11c24.09,16.66,32.15,4.8,39.48,16.17,4.29,6.66,1.84,11.38-9.53,18.71ZM1920.78,1734.86c-9.16,10.4-14.63,12.62-20.57,7.39-13.87-12.21,3.94-22.46-18.57-41.84l-86.03-73.08,62.64,142.61c2.75,6.37,2.76,10.35-1.01,17.13-3.78,6.79-8.84,8.05-13.86,6.26l-147.88-49.26,88.27,82.52c15.17,14.23,26.51,1.35,35.43,9.2,5.7,5.01,3.67,9.82-3.09,17.5l-21.58,24.53c-8.07,9.17-12.42,10.61-17.87,5.82-8.17-7.2,3.76-21.75-11.2-36.23l-102.69-99.6c-17.18-16.44-27.94,1.78-39.59-8.46-5.95-5.23-4.66-10.69,3.41-19.86l29.21-33.2c4.58-5.2,9.86-6.71,16.53-4.79l136.81,44.35-58.07-133.31c-2.77-6.84-2.17-12.02,2.41-17.22l27.69-31.46c8.07-9.17,13.54-11.39,19.48-6.15,11.64,10.25-5.31,23.02,13.43,38.19l102.89,84.39c24.41,19.72,31.8-3.67,46.91,9.63,5.95,5.23,4.88,10.44-4.72,21.34l-38.37,43.6Z"/>
  </g>
</svg>