<?xml version="1.0" encoding="UTF-8"?>
<svg id="Layer_2" xmlns="http://www.w3.org/2000/svg" viewBox="0 0 894.83 1131.22">
  <defs>
    <style>
      .cls-1 {
        fill: #389faf;
        fill-rule: evenodd;
      }
    </style>
  </defs>
  <g id="Layer_2-2" data-name="Layer_2">
    <path class="cls-1" d="M635.06,200.37c-6.31,16.03-7.1,39.51,3.94,52.66-1.93-5.08-3.15-11.39-3.68-18.92,10.86,14.81,30.31,29.09,43.72,47.66,17.96,24.79,29.26,53.27,9.73,74.91,9.11,22.08,7.27,48.45-5.61,79.12-8.41,24.01-4.91,61.42,10.6,112.32,16.03,52.92,30.31,90.07-9.64,139.13,9.02-5.43,15.68-10.51,20.06-15.24,37.15,28.39,63.34,69.3,108.2,86.12,37.94,12.97,10.16,51.25-1.93,70.35-17.61,27.77-32.68,69.13-45.21,123.97-.88,4.38-4.99,7.36-12.44,8.94-11.65,2.98-20.15,11.13-25.41,24.44-3.42,14.46-20.85,30.66-52.31,48.63-3.07-22.43-.7-46.17,7.27-71.23.7-3.24,7.01-3.86,19.01-1.84,8.76-3.42,13.93-13.05,15.33-28.91,23.83-8.94,38.99-44.86,45.38-107.85,1.75-15.33-5.17-27.16-20.68-35.48-23.74-12.62-61.86-26.02-87.88-34.87-3.15-48.27,60.63-87.96-10.86-144.47,51.52,56.6,10.69,83.76-2.37,143.16-10.25,46.61-14.28,105.84-13.14,137.99-.26,8.15-2.28,17.26-5.96,27.34-13.4,38.99-16.03,84.81-7.8,137.64.44,7.89,2.89,13.76,7.27,17.44,18.75,10.78,32.42,28.47,41.09,53.18-23.74,4.82-48.19,4.82-71.93,0-.88-8.85-.7-17.52.53-26.11,8.41-10.69-7.45-25.67-15.6-31.28-9.11-6.22-10.51-16.56-4.21-31.1,13.93-49.24,14.37-96.02,1.23-140.27-1.93-8.76-2.02-16.91-.18-24.36,1.14-34.34-2.98-76.75-12.18-127.39-60.63,19.01-117.66,13.76-171.28-15.86-10.51,37.15-41.53,86.39-93.05,147.8-17,20.33-21.99,42.76-14.98,67.37,9.73,34.34,41.53,92.87,61.15,122.05,1.75,2.72,3.86,4.56,6.48,5.61,20.94,7.18,36.53,25.23,46.87,54.32-21.82,2.28-43.72,2.28-65.53,0-4.03-7.01-5.61-16.21-4.64-27.69,1.84-9.29-9.11-17.17-32.68-23.48-5.52-42.76-26.37-89.45-62.47-140.09-19.8-25.85-21.11-45.38-4.03-58.7,40.21-45.91,75.52-84.99,100.32-118.8,29.79-40.21,32.5-80.25,8.32-120.12,9.02,32.24,8.94,60.1-.18,83.76-13.14,34.08-89.28,110.39-116.96,141.32-19.71,21.29-29.26,43.54-28.74,66.94-2.1,62.38.88,107.24,8.94,134.66,1.75,4.56,4.91,7.97,9.55,10.25,18.66,11.92,32.07,29.61,40.3,53.09-22.95,3.68-46.35,3.68-69.3,0-3.33-7.1-4.21-17.08-2.63-30.05,2.19-9.55-2.98-18.57-15.51-27.16-12.27-9.02-16.21-18.31-11.74-27.95,13.05-50.11,10.95-100.76-6.22-151.92-8.76-24.79-6.31-40.21,7.27-46,54.76-24.18,68.43-72.11,41.27-143.77-19.1-52.48-15.86-95.5,9.64-128.97-18.49-9.64-37.59-9.55-57.39.35-29.35,20.94-30.14,59.75-2.28,116.53,16.56,44.6,2.98,82.44-40.57,113.55-13.76,10.43-22.25,20.76-25.58,31.19-4.82,17.26-.7,38.55,12.35,63.78,10.86,25.06,7.36,45.12-10.6,60.28-21.03,13.49-41.7,11.3-62.21-6.66,20.15,7.36,35.57,4.91,46.26-7.18C97.2,908.11-4,881.74.12,815.16c1.4-23.39,14.54-47.75,39.34-72.98,21.2-27.86,23.66-56.34,7.36-85.34-75.96-160.25,88.14-222.8,174.09-105.4,37.85-28.39,84.55-29.35,140.01-2.89,43.89,22.6,82.71,27.42,116.44,14.46-5.69-23.66-17.08-48.27-34.26-73.86-7.45-11.65-11.3-19.89-11.65-24.88-3.33-13.14-8.85-24.97-16.47-35.48-4.47-9.11-3.68-19.36,2.45-30.66,9.02-20.68,14.19-40.92,15.51-60.72.44-19.54,8.94-38.37,25.41-56.42-3.24-27.25,3.24-46.79,19.28-58.61,32.85-24.27,78.06-.09,99.53,24.62-12.09-21.64-32.5-35.66-61.24-41.88,25.76-5.43,50.2-12.18,31.89-40.3-7.53-9.02-11.57-17.52-11.92-25.41-1.84,3.24-5.26,6.13-10.25,8.76,2.63-3.59,4.21-7.97,4.47-12.44-6.4,1.84-13.23,1.23-19.1-1.75,18.4,1.23,26.02-8.67,22.78-29.7-3.07-16.73,2.98-28.82,18.05-36.18-4.91-1.23-11.13.44-18.75,4.91,4.82-7.62,13.76-11.21,26.99-10.78,2.19-4.56,5.61-8.5,9.9-11.21-2.02,3.68-2.98,7.89-2.89,12.09,7.45-15.07,21.47-24.53,37.85-26.28,24.62-2.72,38.81,14.54,55.55,11.13,10.16-1.93,15.24-2.8,24.01,4.56-4.73-1.23-9.11-.96-13.05.96,17.08,1.84,25.06,9.99,23.83,24.27-3.77-6.83-9.02-11.04-15.68-12.53,11.74,8.94,14.63,21.47,8.76,37.59-.7-8.67-3.68-15.33-9.02-19.98,3.77,9.46,3.86,19.27.35,29.44-1.93-10.16-7.8-17.96-17.52-23.39,3.86,7.8,6.66,17.44,8.32,28.74.18,3.07.7,5.34,1.4,6.75-.35,2.1-1.4,3.5-3.07,4.21-.26,5.34,2.19,13.84,7.36,25.67,2.19,3.59-.35,6.22-7.53,7.97-2.8,1.14-3.68,3.42-2.63,6.66.88,2.1.44,3.68-1.23,4.82-1.4,1.05-1.75,2.45-1.14,4.29,1.75,2.37.88,4.73-2.63,7.18-.96,1.66-.44,4.21,1.49,7.53,2.19,9.2-6.92,11.83-27.42,7.71h0ZM872.31,118.37l-50.99,368.5.18.09c2.19,2.37,3.94,5.26,5.17,8.76,1.14,2.45,3.42,4.03,6.92,4.82,7.27,2.8,8.32,8.32,3.15,16.65.53,8.85-.79,14.89-3.94,18.14.79,7.45-.88,12.35-4.99,14.72.7,9.73-4.91,13.58-16.82,11.57l-23.22,167.87c-5.26-3.77-10.34-7.97-15.33-12.35l22.08-159.46c-7.1-2.02-13.14-4.21-18.22-6.66-31.63-13.93-56.86-23.04-75.52-27.16-6.66-25.85-12.35-58.35-6.05-80.69,19.01,12.7,32.42,24.88,40.39,36.53,12.09,12.97,24.79,21.47,38.2,25.41,16.38-13.76,22.95-19.54,26.81-20.85l1.58,21.03,53.97-390.05c-9.11-.09-18.84,2.37-29.18,7.45,20.94-21.99,44.86-94.36,55.81-122.66.96,30.31.18,106.71,12.53,134.4-7.01-7.62-14.54-12.97-22.52-16.03h0ZM753.86,974.96l-21.29,153.5h-17l17-123.18c3.5-4.91,6.13-9.99,7.53-15.33,2.8-6.83,6.83-12.35,13.76-14.98h0ZM522.82,534.7c-3.07,21.29,23.48,35.83,36.62,53.53-.44,17.61-7.53,30.31-4.29,44.16-8.5-1.75-10.51-15.68-5.87-41.53,0,0-7.97-8.67-23.83-26.11-8.59-8.5-15.86-34.61-21.73-78.5.09-27.69-8.5-54.67-25.76-80.87,25.85-23.13,43.37-58.88,52.48-107.24-.26,32.07-6.75,59.49-19.45,82.18,63.78,70.88,67.81,122.4,11.83,154.37h0Z"/>
  </g>
</svg>